<svg width="58" height="58" viewBox="0 0 58 58" fill="none" xmlns="http://www.w3.org/2000/svg">
<mask id="mask0_53_283" style="mask-type:luminance" maskUnits="userSpaceOnUse" x="0" y="0" width="58" height="58">
<path d="M0 0H58V57.8125H0V0Z" fill="white"/>
</mask>
<g mask="url(#mask0_53_283)">
<mask id="mask1_53_283" style="mask-type:luminance" maskUnits="userSpaceOnUse" x="0" y="0" width="58" height="58">
<path d="M42.599 34.2083L50.1354 38.6458C50.9531 39.1198 51.2292 40.1458 50.75 40.9635C48.2969 45.0885 44.849 48.5 40.7552 50.8906C36.7656 53.1719 32.1302 54.4688 27.2188 54.4688C26.875 54.4688 26.4323 54.4688 25.9219 54.4375H25.8542C25.3385 55.4948 24.5208 56.3438 23.5313 56.9271C22.2344 57.6771 20.6667 57.9167 19.1302 57.5052C17.5625 57.099 16.3333 56.0729 15.5833 54.8125C14.8333 53.5156 14.5938 51.9479 15.0052 50.375C15.4167 48.8438 16.4375 47.5781 17.6979 46.8646C18.9948 46.1146 20.599 45.8385 22.1354 46.25C23.6667 46.6927 24.9323 47.6823 25.6823 48.9792C26.0208 49.5938 26.2604 50.3073 26.3958 51.026C26.6354 51.026 26.9115 51.0573 27.2188 51.0573C31.5156 51.0573 35.5729 49.901 39.0521 47.9219C42.1563 46.1146 44.849 43.6563 46.8958 40.6927L40.8958 37.1771C40.3802 37.8958 39.8021 38.5417 39.1875 39.1875C36.1198 42.224 31.8906 44.1354 27.2188 44.1354C22.5781 44.1354 18.349 42.224 15.276 39.1875C14.6302 38.5052 13.9844 37.7552 13.4375 36.974L5.82813 41.2344C5.01042 41.7135 3.95312 41.4063 3.51042 40.5885H3.47917C2.34896 38.5052 1.46354 36.3229 0.885417 34.0729C0.302083 31.8542 0 29.5729 0 27.2188C0 24.3542 0.442709 21.5885 1.26042 19C2.01042 16.6458 3.06771 14.4635 4.36458 12.4479C3.68229 11.4583 3.375 10.3333 3.375 9.17188C3.375 7.70833 3.92188 6.20833 5.07813 5.08333C6.20313 3.92187 7.70833 3.375 9.17188 3.375C10.6719 3.375 12.1719 3.92187 13.3021 5.08333C14.4271 6.20833 15.0052 7.70833 15.0052 9.17188C15.0052 10.6771 14.4271 12.1771 13.3021 13.3021C12.1719 14.4271 10.6719 15.0052 9.17188 15.0052C8.45833 15.0052 7.73958 14.8698 7.05729 14.599C6 16.2708 5.14583 18.1094 4.53646 20.0208C3.81771 22.3073 3.40625 24.7292 3.40625 27.2188C3.40625 29.2969 3.68229 31.3125 4.19271 33.2188C4.56771 34.651 5.07812 36.0521 5.69271 37.3802L11.7656 34.0052C10.8437 31.9271 10.3333 29.6406 10.3333 27.2188C10.3333 22.5781 12.2448 18.349 15.276 15.2813C17.974 12.6198 21.5521 10.8438 25.5104 10.4375V1.70313C25.5104 0.75 26.2969 0 27.2188 0C32.6042 0 37.651 1.56771 41.8854 4.29688C45.9427 6.89063 49.2865 10.5052 51.4688 14.8385C52.6615 14.7344 53.8229 15.0052 54.776 15.5885H54.8125C56.0729 16.3385 57.0938 17.5625 57.5052 19.1354C57.9115 20.6667 57.6771 22.2396 56.9271 23.5313C56.1719 24.8281 54.9479 25.8542 53.375 26.2604C51.8438 26.6719 50.276 26.401 48.9792 25.6823C47.6823 24.9323 46.6927 23.6719 46.25 22.1354C45.8385 20.599 46.1146 19.0313 46.8646 17.7344V17.7031C47.2031 17.0885 47.6823 16.5052 48.2604 16.0625C46.349 12.4479 43.4844 9.38021 40.0417 7.16146C36.8021 5.08333 33.0156 3.78646 28.9583 3.47917V10.4375C32.9115 10.8438 36.4948 12.6198 39.1875 15.2813C42.224 18.349 44.1354 22.5781 44.1354 27.2188C44.1354 29.7396 43.5885 32.0938 42.599 34.2083ZM36.7656 17.7031C34.3125 15.2812 30.9323 13.7813 27.2188 13.7813C23.5313 13.7813 20.1563 15.2812 17.6979 17.7031C15.276 20.1562 13.776 23.5312 13.776 27.2188C13.776 30.9375 15.276 34.3125 17.6979 36.7656C20.1563 39.1875 23.5313 40.6927 27.2188 40.6927C30.9323 40.6927 34.3125 39.1875 36.7656 36.7656C39.1875 34.3125 40.6875 30.9375 40.6875 27.2188C40.6875 23.5312 39.1875 20.1562 36.7656 17.7031ZM27.2188 20.3281C29.125 20.3281 30.8646 21.1146 32.0938 22.375C33.3542 23.6042 34.1406 25.3438 34.1406 27.2188C34.1406 29.1302 33.3542 30.8646 32.0938 32.0938C30.8646 33.3594 29.125 34.1406 27.2188 34.1406C25.3385 34.1406 23.599 33.3594 22.375 32.0938C21.1094 30.8646 20.3281 29.1302 20.3281 27.2188C20.3281 25.3438 21.1094 23.6042 22.375 22.375C23.599 21.1146 25.3385 20.3281 27.2188 20.3281ZM29.6719 24.7969C29.0573 24.1458 28.2031 23.7708 27.2188 23.7708C26.2604 23.7708 25.4063 24.1458 24.7969 24.7969C24.1458 25.4115 23.7708 26.2604 23.7708 27.2188C23.7708 28.2083 24.1458 29.0573 24.7969 29.6719C25.4063 30.3229 26.2604 30.6979 27.2188 30.6979C28.2031 30.6979 29.0573 30.3229 29.6719 29.6719C30.3177 29.0573 30.6927 28.2083 30.6927 27.2188C30.6927 26.2604 30.3177 25.4115 29.6719 24.7969ZM9.17188 6.78646C8.55729 6.78646 7.94271 7.02604 7.5 7.50521C7.02604 7.94792 6.78646 8.5625 6.78646 9.17188C6.78646 9.78646 7.02604 10.401 7.5 10.8802C7.94271 11.3594 8.55729 11.5938 9.17188 11.5938C9.78646 11.5938 10.401 11.3594 10.8802 10.8802C11.3542 10.401 11.5938 9.78646 11.5938 9.17188C11.5938 8.5625 11.3542 7.94792 10.8802 7.50521C10.401 7.02604 9.78646 6.78646 9.17188 6.78646ZM18.5521 53.0729C18.8594 53.6198 19.3698 54.026 20.0208 54.1979C20.6354 54.3698 21.2813 54.2656 21.8281 53.9583C22.375 53.651 22.7813 53.1406 22.9531 52.526C23.125 51.8802 23.0208 51.2292 22.7135 50.6823C22.4063 50.1719 21.8958 49.7292 21.2448 49.5573C20.599 49.3906 19.9531 49.4896 19.4375 49.7969C18.8958 50.1042 18.4844 50.6146 18.3125 51.2656C18.1458 51.9115 18.2448 52.5625 18.5521 53.0729ZM53.9583 21.8281C54.2656 21.2812 54.3646 20.6354 54.1979 20.0208C54.026 19.375 53.6146 18.8594 53.0729 18.5521C52.5573 18.2448 51.9115 18.1458 51.2604 18.3177C50.6146 18.4844 50.1042 18.8958 49.7969 19.4427C49.4896 19.9531 49.3854 20.599 49.5573 21.25C49.7292 21.8958 50.1719 22.4063 50.6823 22.7135C51.2292 23.0208 51.875 23.125 52.526 22.9531C53.1406 22.7812 53.651 22.375 53.9583 21.8281Z" fill="white"/>
</mask>
<g mask="url(#mask1_53_283)">
<path d="M0 0V57.9167H57.9115V0H0Z" fill="url(#paint0_linear_53_283)"/>
</g>
</g>
<defs>
<linearGradient id="paint0_linear_53_283" x1="18.647" y1="62.7351" x2="36.3049" y2="-5.58595" gradientUnits="userSpaceOnUse">
<stop stop-color="#F5C617"/>
<stop offset="0.00390625" stop-color="#F4C518"/>
<stop offset="0.0078125" stop-color="#F4C319"/>
<stop offset="0.0117187" stop-color="#F4C21A"/>
<stop offset="0.015625" stop-color="#F4C11B"/>
<stop offset="0.0195312" stop-color="#F4BF1D"/>
<stop offset="0.0234375" stop-color="#F4BE1E"/>
<stop offset="0.0273438" stop-color="#F3BC1F"/>
<stop offset="0.03125" stop-color="#F3BB20"/>
<stop offset="0.0351562" stop-color="#F3BA21"/>
<stop offset="0.0390625" stop-color="#F3B822"/>
<stop offset="0.0429687" stop-color="#F3B724"/>
<stop offset="0.046875" stop-color="#F2B525"/>
<stop offset="0.0507812" stop-color="#F2B426"/>
<stop offset="0.0546875" stop-color="#F2B327"/>
<stop offset="0.0585937" stop-color="#F2B128"/>
<stop offset="0.0625" stop-color="#F2B029"/>
<stop offset="0.0664062" stop-color="#F1AE2B"/>
<stop offset="0.0703125" stop-color="#F1AD2C"/>
<stop offset="0.0742188" stop-color="#F1AC2D"/>
<stop offset="0.078125" stop-color="#F1AA2E"/>
<stop offset="0.0820312" stop-color="#F1A92F"/>
<stop offset="0.0859375" stop-color="#F1A730"/>
<stop offset="0.0898438" stop-color="#F0A632"/>
<stop offset="0.09375" stop-color="#F0A533"/>
<stop offset="0.0976562" stop-color="#F0A334"/>
<stop offset="0.101562" stop-color="#F0A235"/>
<stop offset="0.105469" stop-color="#F0A036"/>
<stop offset="0.109375" stop-color="#EF9F37"/>
<stop offset="0.113281" stop-color="#EF9E39"/>
<stop offset="0.117187" stop-color="#EF9C3A"/>
<stop offset="0.121094" stop-color="#EF9B3B"/>
<stop offset="0.125" stop-color="#EF993C"/>
<stop offset="0.128906" stop-color="#EE983D"/>
<stop offset="0.132812" stop-color="#EE973E"/>
<stop offset="0.136719" stop-color="#EE9540"/>
<stop offset="0.140625" stop-color="#EE9441"/>
<stop offset="0.144531" stop-color="#EE9242"/>
<stop offset="0.148437" stop-color="#ED9143"/>
<stop offset="0.152344" stop-color="#ED9044"/>
<stop offset="0.15625" stop-color="#ED8E45"/>
<stop offset="0.160156" stop-color="#ED8D47"/>
<stop offset="0.164062" stop-color="#ED8B48"/>
<stop offset="0.167969" stop-color="#ED8A49"/>
<stop offset="0.171875" stop-color="#EC894A"/>
<stop offset="0.175781" stop-color="#EC874B"/>
<stop offset="0.179687" stop-color="#EC864C"/>
<stop offset="0.183594" stop-color="#EC844E"/>
<stop offset="0.1875" stop-color="#EC834F"/>
<stop offset="0.191406" stop-color="#EB8250"/>
<stop offset="0.195313" stop-color="#EB8051"/>
<stop offset="0.199219" stop-color="#EB7F52"/>
<stop offset="0.203125" stop-color="#EB7D53"/>
<stop offset="0.207031" stop-color="#EB7C55"/>
<stop offset="0.210938" stop-color="#EA7B56"/>
<stop offset="0.214844" stop-color="#EA7957"/>
<stop offset="0.21875" stop-color="#EA7858"/>
<stop offset="0.222656" stop-color="#EA7659"/>
<stop offset="0.226562" stop-color="#EA755A"/>
<stop offset="0.230469" stop-color="#EA745C"/>
<stop offset="0.234375" stop-color="#E9725D"/>
<stop offset="0.238281" stop-color="#E9715E"/>
<stop offset="0.242187" stop-color="#E96F5F"/>
<stop offset="0.246094" stop-color="#E96E60"/>
<stop offset="0.25" stop-color="#E96D61"/>
<stop offset="0.253906" stop-color="#E86B63"/>
<stop offset="0.257812" stop-color="#E86A64"/>
<stop offset="0.261719" stop-color="#E86865"/>
<stop offset="0.265625" stop-color="#E86766"/>
<stop offset="0.269531" stop-color="#E86667"/>
<stop offset="0.273437" stop-color="#E76468"/>
<stop offset="0.277344" stop-color="#E76369"/>
<stop offset="0.28125" stop-color="#E7616B"/>
<stop offset="0.285156" stop-color="#E7606C"/>
<stop offset="0.289062" stop-color="#E75F6D"/>
<stop offset="0.292969" stop-color="#E75D6E"/>
<stop offset="0.296875" stop-color="#E65C6F"/>
<stop offset="0.300781" stop-color="#E65A70"/>
<stop offset="0.304688" stop-color="#E65972"/>
<stop offset="0.308594" stop-color="#E65873"/>
<stop offset="0.3125" stop-color="#E65674"/>
<stop offset="0.316406" stop-color="#E55575"/>
<stop offset="0.320312" stop-color="#E55376"/>
<stop offset="0.324219" stop-color="#E55277"/>
<stop offset="0.328125" stop-color="#E55179"/>
<stop offset="0.332031" stop-color="#E54F7A"/>
<stop offset="0.335937" stop-color="#E44E7B"/>
<stop offset="0.339844" stop-color="#E44C7C"/>
<stop offset="0.34375" stop-color="#E44B7D"/>
<stop offset="0.347656" stop-color="#E44A7E"/>
<stop offset="0.351562" stop-color="#E44880"/>
<stop offset="0.355469" stop-color="#E34781"/>
<stop offset="0.359375" stop-color="#E34582"/>
<stop offset="0.363281" stop-color="#E34483"/>
<stop offset="0.367187" stop-color="#E34384"/>
<stop offset="0.371094" stop-color="#E34185"/>
<stop offset="0.375" stop-color="#E34087"/>
<stop offset="0.378906" stop-color="#E23E88"/>
<stop offset="0.382812" stop-color="#E23D89"/>
<stop offset="0.386719" stop-color="#E23C8A"/>
<stop offset="0.390625" stop-color="#E23A8B"/>
<stop offset="0.394531" stop-color="#E2398C"/>
<stop offset="0.398437" stop-color="#E1378E"/>
<stop offset="0.402344" stop-color="#E1368F"/>
<stop offset="0.40625" stop-color="#E13590"/>
<stop offset="0.410156" stop-color="#E13391"/>
<stop offset="0.414062" stop-color="#E13292"/>
<stop offset="0.417969" stop-color="#E03093"/>
<stop offset="0.421875" stop-color="#E02F95"/>
<stop offset="0.425781" stop-color="#E02E96"/>
<stop offset="0.429687" stop-color="#E02C97"/>
<stop offset="0.433594" stop-color="#E02B98"/>
<stop offset="0.4375" stop-color="#E02999"/>
<stop offset="0.441406" stop-color="#DF289A"/>
<stop offset="0.445312" stop-color="#DF279C"/>
<stop offset="0.449219" stop-color="#DF259D"/>
<stop offset="0.453125" stop-color="#DF249E"/>
<stop offset="0.457031" stop-color="#DF229F"/>
<stop offset="0.460937" stop-color="#DE21A0"/>
<stop offset="0.464844" stop-color="#DE20A1"/>
<stop offset="0.46875" stop-color="#DD20A2"/>
<stop offset="0.472656" stop-color="#DC21A2"/>
<stop offset="0.476562" stop-color="#DB22A2"/>
<stop offset="0.480469" stop-color="#DA23A2"/>
<stop offset="0.484375" stop-color="#D825A3"/>
<stop offset="0.488281" stop-color="#D726A3"/>
<stop offset="0.492188" stop-color="#D627A3"/>
<stop offset="0.496094" stop-color="#D528A3"/>
<stop offset="0.5" stop-color="#D32AA3"/>
<stop offset="0.503906" stop-color="#D22BA3"/>
<stop offset="0.507812" stop-color="#D12CA4"/>
<stop offset="0.511719" stop-color="#D02DA4"/>
<stop offset="0.515625" stop-color="#CE2EA4"/>
<stop offset="0.519531" stop-color="#CD30A4"/>
<stop offset="0.523438" stop-color="#CC31A4"/>
<stop offset="0.527344" stop-color="#CB32A4"/>
<stop offset="0.53125" stop-color="#C933A4"/>
<stop offset="0.535156" stop-color="#C834A5"/>
<stop offset="0.539062" stop-color="#C736A5"/>
<stop offset="0.542969" stop-color="#C637A5"/>
<stop offset="0.546875" stop-color="#C438A5"/>
<stop offset="0.550781" stop-color="#C339A5"/>
<stop offset="0.554688" stop-color="#C23BA5"/>
<stop offset="0.558594" stop-color="#C03CA5"/>
<stop offset="0.5625" stop-color="#BF3DA6"/>
<stop offset="0.566406" stop-color="#BE3EA6"/>
<stop offset="0.570313" stop-color="#BD3FA6"/>
<stop offset="0.574219" stop-color="#BB41A6"/>
<stop offset="0.578125" stop-color="#BA42A6"/>
<stop offset="0.582031" stop-color="#B943A6"/>
<stop offset="0.585938" stop-color="#B844A6"/>
<stop offset="0.589844" stop-color="#B645A7"/>
<stop offset="0.59375" stop-color="#B547A7"/>
<stop offset="0.597656" stop-color="#B448A7"/>
<stop offset="0.601562" stop-color="#B349A7"/>
<stop offset="0.605469" stop-color="#B14AA7"/>
<stop offset="0.609375" stop-color="#B04CA7"/>
<stop offset="0.613281" stop-color="#AF4DA8"/>
<stop offset="0.617188" stop-color="#AE4EA8"/>
<stop offset="0.621094" stop-color="#AC4FA8"/>
<stop offset="0.625" stop-color="#AB50A8"/>
<stop offset="0.628906" stop-color="#AA52A8"/>
<stop offset="0.632812" stop-color="#A953A8"/>
<stop offset="0.636719" stop-color="#A754A8"/>
<stop offset="0.640625" stop-color="#A655A9"/>
<stop offset="0.644531" stop-color="#A556A9"/>
<stop offset="0.648438" stop-color="#A458A9"/>
<stop offset="0.652344" stop-color="#A259A9"/>
<stop offset="0.65625" stop-color="#A15AA9"/>
<stop offset="0.660156" stop-color="#A05BA9"/>
<stop offset="0.664062" stop-color="#9F5CA9"/>
<stop offset="0.667969" stop-color="#9D5EAA"/>
<stop offset="0.671875" stop-color="#9C5FAA"/>
<stop offset="0.675781" stop-color="#9B60AA"/>
<stop offset="0.679688" stop-color="#9A61AA"/>
<stop offset="0.683594" stop-color="#9863AA"/>
<stop offset="0.6875" stop-color="#9764AA"/>
<stop offset="0.691406" stop-color="#9665AB"/>
<stop offset="0.695312" stop-color="#9566AB"/>
<stop offset="0.699219" stop-color="#9367AB"/>
<stop offset="0.703125" stop-color="#9269AB"/>
<stop offset="0.707031" stop-color="#916AAB"/>
<stop offset="0.710938" stop-color="#906BAB"/>
<stop offset="0.714844" stop-color="#8E6CAB"/>
<stop offset="0.71875" stop-color="#8D6DAC"/>
<stop offset="0.722656" stop-color="#8C6FAC"/>
<stop offset="0.726562" stop-color="#8A70AC"/>
<stop offset="0.730469" stop-color="#8971AC"/>
<stop offset="0.734375" stop-color="#8872AC"/>
<stop offset="0.738281" stop-color="#8774AC"/>
<stop offset="0.742188" stop-color="#8575AC"/>
<stop offset="0.746094" stop-color="#8476AD"/>
<stop offset="0.75" stop-color="#8377AD"/>
<stop offset="0.753906" stop-color="#8278AD"/>
<stop offset="0.757812" stop-color="#807AAD"/>
<stop offset="0.761719" stop-color="#7F7BAD"/>
<stop offset="0.765625" stop-color="#7E7CAD"/>
<stop offset="0.769531" stop-color="#7D7DAE"/>
<stop offset="0.773438" stop-color="#7B7EAE"/>
<stop offset="0.777344" stop-color="#7A80AE"/>
<stop offset="0.78125" stop-color="#7981AE"/>
<stop offset="0.785156" stop-color="#7882AE"/>
<stop offset="0.789062" stop-color="#7683AE"/>
<stop offset="0.792969" stop-color="#7585AE"/>
<stop offset="0.796875" stop-color="#7486AF"/>
<stop offset="0.800781" stop-color="#7387AF"/>
<stop offset="0.804688" stop-color="#7188AF"/>
<stop offset="0.808594" stop-color="#7089AF"/>
<stop offset="0.8125" stop-color="#6F8BAF"/>
<stop offset="0.816406" stop-color="#6E8CAF"/>
<stop offset="0.820312" stop-color="#6C8DAF"/>
<stop offset="0.824219" stop-color="#6B8EB0"/>
<stop offset="0.828125" stop-color="#6A8FB0"/>
<stop offset="0.832031" stop-color="#6991B0"/>
<stop offset="0.835938" stop-color="#6792B0"/>
<stop offset="0.839844" stop-color="#6693B0"/>
<stop offset="0.84375" stop-color="#6594B0"/>
<stop offset="0.847656" stop-color="#6496B1"/>
<stop offset="0.851562" stop-color="#6297B1"/>
<stop offset="0.855469" stop-color="#6198B1"/>
<stop offset="0.859375" stop-color="#6099B1"/>
<stop offset="0.863281" stop-color="#5F9AB1"/>
<stop offset="0.867188" stop-color="#5D9CB1"/>
<stop offset="0.871094" stop-color="#5C9DB1"/>
<stop offset="0.875" stop-color="#5B9EB2"/>
<stop offset="0.878906" stop-color="#5A9FB2"/>
<stop offset="0.882812" stop-color="#58A0B2"/>
<stop offset="0.886719" stop-color="#57A2B2"/>
<stop offset="0.890625" stop-color="#56A3B2"/>
<stop offset="0.894531" stop-color="#54A4B2"/>
<stop offset="0.898438" stop-color="#53A5B2"/>
<stop offset="0.902344" stop-color="#52A7B3"/>
<stop offset="0.90625" stop-color="#51A8B3"/>
<stop offset="0.910156" stop-color="#4FA9B3"/>
<stop offset="0.914062" stop-color="#4EAAB3"/>
<stop offset="0.917969" stop-color="#4DABB3"/>
<stop offset="0.921875" stop-color="#4CADB3"/>
<stop offset="0.925781" stop-color="#4AAEB4"/>
<stop offset="0.929687" stop-color="#49AFB4"/>
<stop offset="0.933594" stop-color="#48B0B4"/>
<stop offset="0.9375" stop-color="#47B1B4"/>
<stop offset="1" stop-color="#46B2B4"/>
</linearGradient>
</defs>
</svg>
