<svg width="218" height="59" viewBox="0 0 218 59" fill="none" xmlns="http://www.w3.org/2000/svg">
<mask id="mask0_53_344" style="mask-type:luminance" maskUnits="userSpaceOnUse" x="0" y="0" width="59" height="59">
<path d="M0.765625 0.854126H58.7656V58.6666H0.765625V0.854126Z" fill="white"/>
</mask>
<g mask="url(#mask0_53_344)">
<mask id="mask1_53_344" style="mask-type:luminance" maskUnits="userSpaceOnUse" x="0" y="0" width="59" height="59">
<path d="M43.3646 35.0625L50.901 39.5C51.7188 39.9739 51.9948 41 51.5156 41.8177C49.0625 45.9427 45.6146 49.3541 41.5208 51.7448C37.5313 54.026 32.8958 55.3229 27.9844 55.3229C27.6406 55.3229 27.1979 55.3229 26.6875 55.2916H26.6198C26.1042 56.3489 25.2865 57.1979 24.2969 57.7812C23 58.5312 21.4323 58.7708 19.8958 58.3593C18.3281 57.9531 17.099 56.927 16.349 55.6666C15.599 54.3698 15.3594 52.802 15.7708 51.2291C16.1823 49.6979 17.2031 48.4323 18.4635 47.7187C19.7604 46.9687 21.3646 46.6927 22.901 47.1041C24.4323 47.5468 25.6979 48.5364 26.4479 49.8333C26.7865 50.4479 27.026 51.1614 27.1615 51.8802C27.401 51.8802 27.6771 51.9114 27.9844 51.9114C32.2813 51.9114 36.3385 50.7552 39.8177 48.776C42.9219 46.9687 45.6146 44.5104 47.6615 41.5468L41.6615 38.0312C41.1458 38.75 40.5677 39.3958 39.9531 40.0416C36.8854 43.0781 32.6563 44.9895 27.9844 44.9895C23.3438 44.9895 19.1146 43.0781 16.0417 40.0416C15.3958 39.3593 14.75 38.6093 14.2031 37.8281L6.59375 42.0885C5.77604 42.5677 4.71875 42.2604 4.27604 41.4427H4.24479C3.11458 39.3593 2.22917 37.177 1.65104 34.927C1.06771 32.7083 0.765625 30.427 0.765625 28.0729C0.765625 25.2083 1.20833 22.4427 2.02604 19.8541C2.77604 17.5 3.83333 15.3177 5.13021 13.302C4.44792 12.3125 4.14063 11.1875 4.14063 10.026C4.14063 8.56246 4.6875 7.06246 5.84375 5.93746C6.96875 4.776 8.47396 4.22913 9.9375 4.22913C11.4375 4.22913 12.9375 4.776 14.0677 5.93746C15.1927 7.06246 15.7708 8.56246 15.7708 10.026C15.7708 11.5312 15.1927 13.0312 14.0677 14.1562C12.9375 15.2812 11.4375 15.8593 9.9375 15.8593C9.22396 15.8593 8.50521 15.7239 7.82292 15.4531C6.76562 17.125 5.91146 18.9635 5.30208 20.875C4.58333 23.1614 4.17188 25.5833 4.17188 28.0729C4.17188 30.151 4.44792 32.1666 4.95833 34.0729C5.33333 35.5052 5.84375 36.9062 6.45833 38.2343L12.5313 34.8593C11.6094 32.7812 11.099 30.4948 11.099 28.0729C11.099 23.4323 13.0104 19.2031 16.0417 16.1354C18.7396 13.4739 22.3177 11.6979 26.276 11.2916V2.55725C26.276 1.60413 27.0625 0.854126 27.9844 0.854126C33.3698 0.854126 38.4167 2.42183 42.651 5.151C46.7083 7.74475 50.0521 11.3593 52.2344 15.6927C53.4271 15.5885 54.5885 15.8593 55.5417 16.4427H55.5781C56.8385 17.1927 57.8594 18.4166 58.2708 19.9895C58.6771 21.5208 58.4427 23.0937 57.6927 24.3854C56.9375 25.6823 55.7135 26.7083 54.1406 27.1145C52.6094 27.526 51.0417 27.2552 49.7448 26.5364C48.4479 25.7864 47.4583 24.526 47.0156 22.9895C46.6042 21.4531 46.8802 19.8854 47.6302 18.5885V18.5573C47.9688 17.9427 48.4479 17.3593 49.026 16.9166C47.1146 13.302 44.25 10.2343 40.8073 8.01558C37.5677 5.93746 33.7813 4.64058 29.724 4.33329V11.2916C33.6771 11.6979 37.2604 13.4739 39.9531 16.1354C42.9896 19.2031 44.901 23.4323 44.901 28.0729C44.901 30.5937 44.3542 32.9479 43.3646 35.0625ZM37.5313 18.5573C35.0781 16.1354 31.6979 14.6354 27.9844 14.6354C24.2969 14.6354 20.9219 16.1354 18.4635 18.5573C16.0417 21.0104 14.5417 24.3854 14.5417 28.0729C14.5417 31.7916 16.0417 35.1666 18.4635 37.6198C20.9219 40.0416 24.2969 41.5468 27.9844 41.5468C31.6979 41.5468 35.0781 40.0416 37.5313 37.6198C39.9531 35.1666 41.4531 31.7916 41.4531 28.0729C41.4531 24.3854 39.9531 21.0104 37.5313 18.5573ZM27.9844 21.1823C29.8906 21.1823 31.6302 21.9687 32.8594 23.2291C34.1198 24.4583 34.9063 26.1979 34.9063 28.0729C34.9063 29.9843 34.1198 31.7187 32.8594 32.9479C31.6302 34.2135 29.8906 34.9948 27.9844 34.9948C26.1042 34.9948 24.3646 34.2135 23.1406 32.9479C21.875 31.7187 21.0938 29.9843 21.0938 28.0729C21.0938 26.1979 21.875 24.4583 23.1406 23.2291C24.3646 21.9687 26.1042 21.1823 27.9844 21.1823ZM30.4375 25.651C29.8229 25 28.9688 24.625 27.9844 24.625C27.026 24.625 26.1719 25 25.5625 25.651C24.9115 26.2656 24.5365 27.1145 24.5365 28.0729C24.5365 29.0625 24.9115 29.9114 25.5625 30.526C26.1719 31.177 27.026 31.552 27.9844 31.552C28.9688 31.552 29.8229 31.177 30.4375 30.526C31.0833 29.9114 31.4583 29.0625 31.4583 28.0729C31.4583 27.1145 31.0833 26.2656 30.4375 25.651ZM9.9375 7.64058C9.32292 7.64058 8.70833 7.88017 8.26563 8.35933C7.79167 8.80204 7.55208 9.41663 7.55208 10.026C7.55208 10.6406 7.79167 11.2552 8.26563 11.7343C8.70833 12.2135 9.32292 12.4479 9.9375 12.4479C10.5521 12.4479 11.1667 12.2135 11.6458 11.7343C12.1198 11.2552 12.3594 10.6406 12.3594 10.026C12.3594 9.41663 12.1198 8.80204 11.6458 8.35933C11.1667 7.88017 10.5521 7.64058 9.9375 7.64058ZM19.3177 53.927C19.625 54.4739 20.1354 54.8802 20.7865 55.052C21.401 55.2239 22.0469 55.1198 22.5938 54.8125C23.1406 54.5052 23.5469 53.9948 23.7188 53.3802C23.8906 52.7343 23.7865 52.0833 23.4792 51.5364C23.1719 51.026 22.6615 50.5833 22.0104 50.4114C21.3646 50.2448 20.7187 50.3437 20.2031 50.651C19.6615 50.9583 19.25 51.4687 19.0781 52.1198C18.9115 52.7656 19.0104 53.4166 19.3177 53.927ZM54.724 22.6823C55.0313 22.1354 55.1302 21.4895 54.9635 20.875C54.7917 20.2291 54.3802 19.7135 53.8385 19.4062C53.3229 19.0989 52.6771 19 52.026 19.1718C51.3802 19.3385 50.8698 19.75 50.5625 20.2968C50.2552 20.8073 50.151 21.4531 50.3229 22.1041C50.4948 22.75 50.9375 23.2604 51.4479 23.5677C51.9948 23.875 52.6406 23.9791 53.2917 23.8073C53.9063 23.6354 54.4167 23.2291 54.724 22.6823Z" fill="white"/>
</mask>
<g mask="url(#mask1_53_344)">
<path d="M0.765625 0.854126V58.7708H58.6771V0.854126H0.765625Z" fill="url(#paint0_linear_53_344)"/>
</g>
</g>
<path d="M72.7537 3H79.2328V25.7292H93.2745V31H72.7537V3Z" fill="#EBE6E3"/>
<path d="M126.251 3L114.126 31H107.73L95.647 3H102.647L111.168 23L119.793 3H126.251Z" fill="#EBE6E3"/>
<path d="M143.679 3C146.163 3 148.314 3.41667 150.137 4.25C151.97 5.07292 153.377 6.24479 154.366 7.77083C155.351 9.28646 155.845 11.0833 155.845 13.1667C155.845 15.224 155.351 17.0156 154.366 18.5417C153.377 20.0729 151.97 21.2448 150.137 22.0625C148.314 22.8698 146.163 23.2708 143.679 23.2708H138.033V31H131.554V3H143.679ZM143.325 18C145.267 18 146.746 17.5833 147.762 16.75C148.772 15.9063 149.283 14.7083 149.283 13.1667C149.283 11.5833 148.772 10.375 147.762 9.54167C146.746 8.69792 145.267 8.27083 143.325 8.27083H138.033V18H143.325Z" fill="#EBE6E3"/>
<path d="M73.4412 43.0837H69.5037V42.042H78.5662V43.0837H74.6287V53.2503H73.4412V43.0837Z" fill="#EBE6E3"/>
<path d="M89.9753 52.2295V53.2503H82.0586V42.042H89.7253V43.0837H83.2253V47.0628H89.0169V48.0628H83.2253V52.2295H89.9753Z" fill="#EBE6E3"/>
<path d="M99.2167 53.3545C98.1021 53.3545 97.1021 53.1149 96.2167 52.6253C95.3261 52.1253 94.623 51.4482 94.1125 50.5836C93.6125 49.7086 93.3625 48.7295 93.3625 47.6461C93.3625 46.5784 93.6125 45.6045 94.1125 44.7295C94.623 43.8545 95.3261 43.1774 96.2167 42.6878C97.1178 42.2034 98.123 41.9586 99.2375 41.9586C100.071 41.9586 100.831 42.0992 101.529 42.3753C102.238 42.6565 102.831 43.0576 103.321 43.5836L102.571 44.3336C101.696 43.4482 100.592 43.0003 99.2584 43.0003C98.3834 43.0003 97.5761 43.2086 96.8417 43.6253C96.1178 44.0315 95.55 44.5836 95.1334 45.292C94.7271 45.9899 94.5292 46.7711 94.5292 47.6461C94.5292 48.5211 94.7271 49.3128 95.1334 50.0211C95.55 50.7295 96.1178 51.2867 96.8417 51.6878C97.5761 52.094 98.3834 52.292 99.2584 52.292C100.602 52.292 101.706 51.844 102.571 50.9378L103.321 51.7086C102.831 52.2399 102.238 52.6461 101.529 52.9378C100.821 53.219 100.05 53.3545 99.2167 53.3545Z" fill="#EBE6E3"/>
<path d="M116.821 42.042V53.2503H115.654V48.0837H108.633V53.2503H107.467V42.042H108.633V47.042H115.654V42.042H116.821Z" fill="#EBE6E3"/>
<path d="M131.429 42.042V53.2503H130.45L123.241 44.167V53.2503H122.075V42.042H123.033L130.262 51.1462V42.042H131.429Z" fill="#EBE6E3"/>
<path d="M141.578 53.3545C140.464 53.3545 139.459 53.1045 138.558 52.6045C137.651 52.1045 136.943 51.4274 136.433 50.5628C135.933 49.7034 135.683 48.7295 135.683 47.6461C135.683 46.5784 135.933 45.6149 136.433 44.7503C136.943 43.8753 137.651 43.1982 138.558 42.7086C139.459 42.2086 140.464 41.9586 141.578 41.9586C142.672 41.9586 143.667 42.2034 144.558 42.6878C145.459 43.1774 146.162 43.8545 146.662 44.7295C147.172 45.6045 147.433 46.5784 147.433 47.6461C147.433 48.7295 147.172 49.7086 146.662 50.5836C146.162 51.4482 145.459 52.1253 144.558 52.6253C143.667 53.1149 142.672 53.3545 141.578 53.3545ZM141.578 52.292C142.453 52.292 143.245 52.094 143.953 51.6878C144.672 51.2867 145.235 50.7295 145.641 50.0211C146.058 49.3128 146.266 48.5211 146.266 47.6461C146.266 46.7711 146.058 45.9795 145.641 45.2711C145.235 44.5628 144.672 44.0107 143.953 43.6045C143.245 43.2034 142.453 43.0003 141.578 43.0003C140.688 43.0003 139.881 43.2034 139.162 43.6045C138.438 44.0107 137.87 44.5628 137.453 45.2711C137.047 45.9795 136.849 46.7711 136.849 47.6461C136.849 48.5211 137.047 49.3128 137.453 50.0211C137.87 50.7295 138.438 51.2867 139.162 51.6878C139.881 52.094 140.688 52.292 141.578 52.292Z" fill="#EBE6E3"/>
<path d="M151.707 42.042H152.873V52.2295H159.144V53.2503H151.707V42.042Z" fill="#EBE6E3"/>
<path d="M167.627 53.3545C166.512 53.3545 165.507 53.1045 164.606 52.6045C163.699 52.1045 162.991 51.4274 162.481 50.5628C161.981 49.7034 161.731 48.7295 161.731 47.6461C161.731 46.5784 161.981 45.6149 162.481 44.7503C162.991 43.8753 163.699 43.1982 164.606 42.7086C165.507 42.2086 166.512 41.9586 167.627 41.9586C168.72 41.9586 169.715 42.2034 170.606 42.6878C171.507 43.1774 172.21 43.8545 172.71 44.7295C173.22 45.6045 173.481 46.5784 173.481 47.6461C173.481 48.7295 173.22 49.7086 172.71 50.5836C172.21 51.4482 171.507 52.1253 170.606 52.6253C169.715 53.1149 168.72 53.3545 167.627 53.3545ZM167.627 52.292C168.502 52.292 169.293 52.094 170.002 51.6878C170.72 51.2867 171.283 50.7295 171.689 50.0211C172.106 49.3128 172.314 48.5211 172.314 47.6461C172.314 46.7711 172.106 45.9795 171.689 45.2711C171.283 44.5628 170.72 44.0107 170.002 43.6045C169.293 43.2034 168.502 43.0003 167.627 43.0003C166.736 43.0003 165.929 43.2034 165.21 43.6045C164.486 44.0107 163.918 44.5628 163.502 45.2711C163.095 45.9795 162.897 46.7711 162.897 47.6461C162.897 48.5211 163.095 49.3128 163.502 50.0211C163.918 50.7295 164.486 51.2867 165.21 51.6878C165.929 52.094 166.736 52.292 167.627 52.292Z" fill="#EBE6E3"/>
<path d="M185.63 47.6461H186.776V51.917C186.244 52.3753 185.619 52.7295 184.901 52.9795C184.192 53.2295 183.442 53.3545 182.651 53.3545C181.536 53.3545 180.531 53.1149 179.63 52.6253C178.739 52.1253 178.036 51.4482 177.526 50.5836C177.01 49.7086 176.755 48.7295 176.755 47.6461C176.755 46.5784 177.01 45.6045 177.526 44.7295C178.036 43.8545 178.739 43.1774 179.63 42.6878C180.531 42.2034 181.546 41.9586 182.671 41.9586C183.531 41.9586 184.317 42.0992 185.026 42.3753C185.734 42.6409 186.338 43.0367 186.838 43.5628L186.088 44.3128C185.213 43.4378 184.088 43.0003 182.713 43.0003C181.807 43.0003 180.989 43.2034 180.255 43.6045C179.531 44.0107 178.963 44.5628 178.546 45.2711C178.13 45.9795 177.921 46.7711 177.921 47.6461C177.921 48.5211 178.13 49.3128 178.546 50.0211C178.963 50.7295 179.531 51.2867 180.255 51.6878C180.974 52.094 181.796 52.292 182.713 52.292C183.864 52.292 184.838 52.0003 185.63 51.417V47.6461Z" fill="#EBE6E3"/>
<path d="M191.723 42.042H192.889V53.2503H191.723V42.042Z" fill="#EBE6E3"/>
<path d="M206.071 52.2295V53.2503H198.155V42.042H205.821V43.0837H199.321V47.0628H205.113V48.0628H199.321V52.2295H206.071Z" fill="#EBE6E3"/>
<path d="M213.542 53.3545C212.709 53.3545 211.907 53.2242 211.146 52.9586C210.381 52.6826 209.792 52.3284 209.375 51.8961L209.834 50.9795C210.25 51.3857 210.792 51.7086 211.459 51.9586C212.125 52.2086 212.818 52.3336 213.542 52.3336C214.542 52.3336 215.292 52.1565 215.792 51.792C216.292 51.417 216.542 50.9378 216.542 50.3545C216.542 49.9117 216.402 49.5576 216.125 49.292C215.86 49.0159 215.527 48.8076 215.125 48.667C214.735 48.5315 214.188 48.3701 213.48 48.1878C212.646 47.9795 211.98 47.7815 211.48 47.5836C210.98 47.3909 210.547 47.094 210.188 46.6878C209.823 46.2711 209.646 45.719 209.646 45.0211C209.646 44.469 209.792 43.9586 210.084 43.5003C210.386 43.0315 210.844 42.6565 211.459 42.3753C212.084 42.0992 212.855 41.9586 213.771 41.9586C214.407 41.9586 215.032 42.0524 215.646 42.2295C216.271 42.3961 216.803 42.6357 217.25 42.9378L216.855 43.8961C216.381 43.5784 215.875 43.344 215.334 43.1878C214.803 43.0367 214.282 42.9586 213.771 42.9586C212.797 42.9586 212.063 43.1565 211.563 43.542C211.063 43.917 210.813 44.4065 210.813 45.0003C210.813 45.4482 210.943 45.8076 211.209 46.0836C211.485 46.3492 211.834 46.5576 212.25 46.7086C212.667 46.8492 213.214 47.0003 213.896 47.167C214.73 47.3753 215.396 47.5784 215.896 47.7711C216.407 47.969 216.839 48.2659 217.188 48.667C217.532 49.0732 217.709 49.6149 217.709 50.292C217.709 50.8649 217.553 51.3753 217.25 51.8336C216.943 52.292 216.48 52.6617 215.855 52.9378C215.23 53.219 214.459 53.3545 213.542 53.3545Z" fill="#EBE6E3"/>
<defs>
<linearGradient id="paint0_linear_53_344" x1="19.4126" y1="63.5893" x2="37.0706" y2="-4.73182" gradientUnits="userSpaceOnUse">
<stop stop-color="#F5C617"/>
<stop offset="0.00390625" stop-color="#F4C518"/>
<stop offset="0.0078125" stop-color="#F4C319"/>
<stop offset="0.0117187" stop-color="#F4C21A"/>
<stop offset="0.015625" stop-color="#F4C11B"/>
<stop offset="0.0195312" stop-color="#F4BF1D"/>
<stop offset="0.0234375" stop-color="#F4BE1E"/>
<stop offset="0.0273438" stop-color="#F3BC1F"/>
<stop offset="0.03125" stop-color="#F3BB20"/>
<stop offset="0.0351562" stop-color="#F3BA21"/>
<stop offset="0.0390625" stop-color="#F3B822"/>
<stop offset="0.0429687" stop-color="#F3B724"/>
<stop offset="0.046875" stop-color="#F2B525"/>
<stop offset="0.0507812" stop-color="#F2B426"/>
<stop offset="0.0546875" stop-color="#F2B327"/>
<stop offset="0.0585937" stop-color="#F2B128"/>
<stop offset="0.0625" stop-color="#F2B029"/>
<stop offset="0.0664062" stop-color="#F1AE2B"/>
<stop offset="0.0703125" stop-color="#F1AD2C"/>
<stop offset="0.0742188" stop-color="#F1AC2D"/>
<stop offset="0.078125" stop-color="#F1AA2E"/>
<stop offset="0.0820312" stop-color="#F1A92F"/>
<stop offset="0.0859375" stop-color="#F1A730"/>
<stop offset="0.0898438" stop-color="#F0A632"/>
<stop offset="0.09375" stop-color="#F0A533"/>
<stop offset="0.0976562" stop-color="#F0A334"/>
<stop offset="0.101562" stop-color="#F0A235"/>
<stop offset="0.105469" stop-color="#F0A036"/>
<stop offset="0.109375" stop-color="#EF9F37"/>
<stop offset="0.113281" stop-color="#EF9E39"/>
<stop offset="0.117187" stop-color="#EF9C3A"/>
<stop offset="0.121094" stop-color="#EF9B3B"/>
<stop offset="0.125" stop-color="#EF993C"/>
<stop offset="0.128906" stop-color="#EE983D"/>
<stop offset="0.132812" stop-color="#EE973E"/>
<stop offset="0.136719" stop-color="#EE9540"/>
<stop offset="0.140625" stop-color="#EE9441"/>
<stop offset="0.144531" stop-color="#EE9242"/>
<stop offset="0.148437" stop-color="#ED9143"/>
<stop offset="0.152344" stop-color="#ED9044"/>
<stop offset="0.15625" stop-color="#ED8E45"/>
<stop offset="0.160156" stop-color="#ED8D47"/>
<stop offset="0.164062" stop-color="#ED8B48"/>
<stop offset="0.167969" stop-color="#ED8A49"/>
<stop offset="0.171875" stop-color="#EC894A"/>
<stop offset="0.175781" stop-color="#EC874B"/>
<stop offset="0.179687" stop-color="#EC864C"/>
<stop offset="0.183594" stop-color="#EC844E"/>
<stop offset="0.1875" stop-color="#EC834F"/>
<stop offset="0.191406" stop-color="#EB8250"/>
<stop offset="0.195313" stop-color="#EB8051"/>
<stop offset="0.199219" stop-color="#EB7F52"/>
<stop offset="0.203125" stop-color="#EB7D53"/>
<stop offset="0.207031" stop-color="#EB7C55"/>
<stop offset="0.210938" stop-color="#EA7B56"/>
<stop offset="0.214844" stop-color="#EA7957"/>
<stop offset="0.21875" stop-color="#EA7858"/>
<stop offset="0.222656" stop-color="#EA7659"/>
<stop offset="0.226562" stop-color="#EA755A"/>
<stop offset="0.230469" stop-color="#EA745C"/>
<stop offset="0.234375" stop-color="#E9725D"/>
<stop offset="0.238281" stop-color="#E9715E"/>
<stop offset="0.242187" stop-color="#E96F5F"/>
<stop offset="0.246094" stop-color="#E96E60"/>
<stop offset="0.25" stop-color="#E96D61"/>
<stop offset="0.253906" stop-color="#E86B63"/>
<stop offset="0.257812" stop-color="#E86A64"/>
<stop offset="0.261719" stop-color="#E86865"/>
<stop offset="0.265625" stop-color="#E86766"/>
<stop offset="0.269531" stop-color="#E86667"/>
<stop offset="0.273437" stop-color="#E76468"/>
<stop offset="0.277344" stop-color="#E76369"/>
<stop offset="0.28125" stop-color="#E7616B"/>
<stop offset="0.285156" stop-color="#E7606C"/>
<stop offset="0.289062" stop-color="#E75F6D"/>
<stop offset="0.292969" stop-color="#E75D6E"/>
<stop offset="0.296875" stop-color="#E65C6F"/>
<stop offset="0.300781" stop-color="#E65A70"/>
<stop offset="0.304688" stop-color="#E65972"/>
<stop offset="0.308594" stop-color="#E65873"/>
<stop offset="0.3125" stop-color="#E65674"/>
<stop offset="0.316406" stop-color="#E55575"/>
<stop offset="0.320312" stop-color="#E55376"/>
<stop offset="0.324219" stop-color="#E55277"/>
<stop offset="0.328125" stop-color="#E55179"/>
<stop offset="0.332031" stop-color="#E54F7A"/>
<stop offset="0.335937" stop-color="#E44E7B"/>
<stop offset="0.339844" stop-color="#E44C7C"/>
<stop offset="0.34375" stop-color="#E44B7D"/>
<stop offset="0.347656" stop-color="#E44A7E"/>
<stop offset="0.351562" stop-color="#E44880"/>
<stop offset="0.355469" stop-color="#E34781"/>
<stop offset="0.359375" stop-color="#E34582"/>
<stop offset="0.363281" stop-color="#E34483"/>
<stop offset="0.367187" stop-color="#E34384"/>
<stop offset="0.371094" stop-color="#E34185"/>
<stop offset="0.375" stop-color="#E34087"/>
<stop offset="0.378906" stop-color="#E23E88"/>
<stop offset="0.382812" stop-color="#E23D89"/>
<stop offset="0.386719" stop-color="#E23C8A"/>
<stop offset="0.390625" stop-color="#E23A8B"/>
<stop offset="0.394531" stop-color="#E2398C"/>
<stop offset="0.398437" stop-color="#E1378E"/>
<stop offset="0.402344" stop-color="#E1368F"/>
<stop offset="0.40625" stop-color="#E13590"/>
<stop offset="0.410156" stop-color="#E13391"/>
<stop offset="0.414062" stop-color="#E13292"/>
<stop offset="0.417969" stop-color="#E03093"/>
<stop offset="0.421875" stop-color="#E02F95"/>
<stop offset="0.425781" stop-color="#E02E96"/>
<stop offset="0.429687" stop-color="#E02C97"/>
<stop offset="0.433594" stop-color="#E02B98"/>
<stop offset="0.4375" stop-color="#E02999"/>
<stop offset="0.441406" stop-color="#DF289A"/>
<stop offset="0.445312" stop-color="#DF279C"/>
<stop offset="0.449219" stop-color="#DF259D"/>
<stop offset="0.453125" stop-color="#DF249E"/>
<stop offset="0.457031" stop-color="#DF229F"/>
<stop offset="0.460937" stop-color="#DE21A0"/>
<stop offset="0.464844" stop-color="#DE20A1"/>
<stop offset="0.46875" stop-color="#DD20A2"/>
<stop offset="0.472656" stop-color="#DC21A2"/>
<stop offset="0.476562" stop-color="#DB22A2"/>
<stop offset="0.480469" stop-color="#DA23A2"/>
<stop offset="0.484375" stop-color="#D825A3"/>
<stop offset="0.488281" stop-color="#D726A3"/>
<stop offset="0.492188" stop-color="#D627A3"/>
<stop offset="0.496094" stop-color="#D528A3"/>
<stop offset="0.5" stop-color="#D32AA3"/>
<stop offset="0.503906" stop-color="#D22BA3"/>
<stop offset="0.507812" stop-color="#D12CA4"/>
<stop offset="0.511719" stop-color="#D02DA4"/>
<stop offset="0.515625" stop-color="#CE2EA4"/>
<stop offset="0.519531" stop-color="#CD30A4"/>
<stop offset="0.523438" stop-color="#CC31A4"/>
<stop offset="0.527344" stop-color="#CB32A4"/>
<stop offset="0.53125" stop-color="#C933A4"/>
<stop offset="0.535156" stop-color="#C834A5"/>
<stop offset="0.539062" stop-color="#C736A5"/>
<stop offset="0.542969" stop-color="#C637A5"/>
<stop offset="0.546875" stop-color="#C438A5"/>
<stop offset="0.550781" stop-color="#C339A5"/>
<stop offset="0.554688" stop-color="#C23BA5"/>
<stop offset="0.558594" stop-color="#C03CA5"/>
<stop offset="0.5625" stop-color="#BF3DA6"/>
<stop offset="0.566406" stop-color="#BE3EA6"/>
<stop offset="0.570313" stop-color="#BD3FA6"/>
<stop offset="0.574219" stop-color="#BB41A6"/>
<stop offset="0.578125" stop-color="#BA42A6"/>
<stop offset="0.582031" stop-color="#B943A6"/>
<stop offset="0.585938" stop-color="#B844A6"/>
<stop offset="0.589844" stop-color="#B645A7"/>
<stop offset="0.59375" stop-color="#B547A7"/>
<stop offset="0.597656" stop-color="#B448A7"/>
<stop offset="0.601562" stop-color="#B349A7"/>
<stop offset="0.605469" stop-color="#B14AA7"/>
<stop offset="0.609375" stop-color="#B04CA7"/>
<stop offset="0.613281" stop-color="#AF4DA8"/>
<stop offset="0.617188" stop-color="#AE4EA8"/>
<stop offset="0.621094" stop-color="#AC4FA8"/>
<stop offset="0.625" stop-color="#AB50A8"/>
<stop offset="0.628906" stop-color="#AA52A8"/>
<stop offset="0.632812" stop-color="#A953A8"/>
<stop offset="0.636719" stop-color="#A754A8"/>
<stop offset="0.640625" stop-color="#A655A9"/>
<stop offset="0.644531" stop-color="#A556A9"/>
<stop offset="0.648438" stop-color="#A458A9"/>
<stop offset="0.652344" stop-color="#A259A9"/>
<stop offset="0.65625" stop-color="#A15AA9"/>
<stop offset="0.660156" stop-color="#A05BA9"/>
<stop offset="0.664062" stop-color="#9F5CA9"/>
<stop offset="0.667969" stop-color="#9D5EAA"/>
<stop offset="0.671875" stop-color="#9C5FAA"/>
<stop offset="0.675781" stop-color="#9B60AA"/>
<stop offset="0.679688" stop-color="#9A61AA"/>
<stop offset="0.683594" stop-color="#9863AA"/>
<stop offset="0.6875" stop-color="#9764AA"/>
<stop offset="0.691406" stop-color="#9665AB"/>
<stop offset="0.695312" stop-color="#9566AB"/>
<stop offset="0.699219" stop-color="#9367AB"/>
<stop offset="0.703125" stop-color="#9269AB"/>
<stop offset="0.707031" stop-color="#916AAB"/>
<stop offset="0.710938" stop-color="#906BAB"/>
<stop offset="0.714844" stop-color="#8E6CAB"/>
<stop offset="0.71875" stop-color="#8D6DAC"/>
<stop offset="0.722656" stop-color="#8C6FAC"/>
<stop offset="0.726562" stop-color="#8A70AC"/>
<stop offset="0.730469" stop-color="#8971AC"/>
<stop offset="0.734375" stop-color="#8872AC"/>
<stop offset="0.738281" stop-color="#8774AC"/>
<stop offset="0.742188" stop-color="#8575AC"/>
<stop offset="0.746094" stop-color="#8476AD"/>
<stop offset="0.75" stop-color="#8377AD"/>
<stop offset="0.753906" stop-color="#8278AD"/>
<stop offset="0.757812" stop-color="#807AAD"/>
<stop offset="0.761719" stop-color="#7F7BAD"/>
<stop offset="0.765625" stop-color="#7E7CAD"/>
<stop offset="0.769531" stop-color="#7D7DAE"/>
<stop offset="0.773438" stop-color="#7B7EAE"/>
<stop offset="0.777344" stop-color="#7A80AE"/>
<stop offset="0.78125" stop-color="#7981AE"/>
<stop offset="0.785156" stop-color="#7882AE"/>
<stop offset="0.789062" stop-color="#7683AE"/>
<stop offset="0.792969" stop-color="#7585AE"/>
<stop offset="0.796875" stop-color="#7486AF"/>
<stop offset="0.800781" stop-color="#7387AF"/>
<stop offset="0.804688" stop-color="#7188AF"/>
<stop offset="0.808594" stop-color="#7089AF"/>
<stop offset="0.8125" stop-color="#6F8BAF"/>
<stop offset="0.816406" stop-color="#6E8CAF"/>
<stop offset="0.820312" stop-color="#6C8DAF"/>
<stop offset="0.824219" stop-color="#6B8EB0"/>
<stop offset="0.828125" stop-color="#6A8FB0"/>
<stop offset="0.832031" stop-color="#6991B0"/>
<stop offset="0.835938" stop-color="#6792B0"/>
<stop offset="0.839844" stop-color="#6693B0"/>
<stop offset="0.84375" stop-color="#6594B0"/>
<stop offset="0.847656" stop-color="#6496B1"/>
<stop offset="0.851562" stop-color="#6297B1"/>
<stop offset="0.855469" stop-color="#6198B1"/>
<stop offset="0.859375" stop-color="#6099B1"/>
<stop offset="0.863281" stop-color="#5F9AB1"/>
<stop offset="0.867188" stop-color="#5D9CB1"/>
<stop offset="0.871094" stop-color="#5C9DB1"/>
<stop offset="0.875" stop-color="#5B9EB2"/>
<stop offset="0.878906" stop-color="#5A9FB2"/>
<stop offset="0.882812" stop-color="#58A0B2"/>
<stop offset="0.886719" stop-color="#57A2B2"/>
<stop offset="0.890625" stop-color="#56A3B2"/>
<stop offset="0.894531" stop-color="#54A4B2"/>
<stop offset="0.898438" stop-color="#53A5B2"/>
<stop offset="0.902344" stop-color="#52A7B3"/>
<stop offset="0.90625" stop-color="#51A8B3"/>
<stop offset="0.910156" stop-color="#4FA9B3"/>
<stop offset="0.914062" stop-color="#4EAAB3"/>
<stop offset="0.917969" stop-color="#4DABB3"/>
<stop offset="0.921875" stop-color="#4CADB3"/>
<stop offset="0.925781" stop-color="#4AAEB4"/>
<stop offset="0.929687" stop-color="#49AFB4"/>
<stop offset="0.933594" stop-color="#48B0B4"/>
<stop offset="0.9375" stop-color="#47B1B4"/>
<stop offset="1" stop-color="#46B2B4"/>
</linearGradient>
</defs>
</svg>
